<svg width="38" height="38" viewBox="8 4 22 22" fill="none" xmlns="http://www.w3.org/2000/svg">
<g filter="url(#filter0_d_2_765)">
<path d="M9.00001 14.6C9.00001 11.2397 9.00001 9.55953 9.65397 8.27606C10.2292 7.14708 11.1471 6.2292 12.2761 5.65396C13.5595 5 15.2397 5 18.6 5H19.4C22.7603 5 24.4405 5 25.724 5.65396C26.8529 6.2292 27.7708 7.14708 28.346 8.27606C29 9.55953 29 11.2397 29 14.6V15.4C29 18.7603 29 20.4405 28.346 21.7239C27.7708 22.8529 26.8529 23.7708 25.724 24.346C24.4405 25 22.7603 25 19.4 25H18.6C15.2397 25 13.5595 25 12.2761 24.346C11.1471 23.7708 10.2292 22.8529 9.65397 21.7239C9.00001 20.4405 9.00001 18.7603 9.00001 15.4V14.6Z" fill="black"/>
<path d="M9.00001 14.6C9.00001 11.2397 9.00001 9.55953 9.65397 8.27606C10.2292 7.14708 11.1471 6.2292 12.2761 5.65396C13.5595 5 15.2397 5 18.6 5H19.4C22.7603 5 24.4405 5 25.724 5.65396C26.8529 6.2292 27.7708 7.14708 28.346 8.27606C29 9.55953 29 11.2397 29 14.6V15.4C29 18.7603 29 20.4405 28.346 21.7239C27.7708 22.8529 26.8529 23.7708 25.724 24.346C24.4405 25 22.7603 25 19.4 25H18.6C15.2397 25 13.5595 25 12.2761 24.346C11.1471 23.7708 10.2292 22.8529 9.65397 21.7239C9.00001 20.4405 9.00001 18.7603 9.00001 15.4V14.6Z" stroke="black" stroke-width="2"/>
</g>
<defs>
<filter id="filter0_d_2_765" x="0" y="0" width="38" height="38" filterUnits="userSpaceOnUse" color-interpolation-filters="sRGB">
<feFlood flood-opacity="0" result="BackgroundImageFix"/>
<feColorMatrix in="SourceAlpha" type="matrix" values="0 0 0 0 0 0 0 0 0 0 0 0 0 0 0 0 0 0 127 0" result="hardAlpha"/>
<feOffset dy="4"/>
<feGaussianBlur stdDeviation="4"/>
<feComposite in2="hardAlpha" operator="out"/>
<feColorMatrix type="matrix" values="0 0 0 0 0 0 0 0 0 0 0 0 0 0 0 0 0 0 0.04 0"/>
<feBlend mode="normal" in2="BackgroundImageFix" result="effect1_dropShadow_2_765"/>
<feBlend mode="normal" in="SourceGraphic" in2="effect1_dropShadow_2_765" result="shape"/>
</filter>
</defs>
</svg>
