<svg width="17" height="21" viewBox="0 0 17 21" fill="none" xmlns="http://www.w3.org/2000/svg">
<path d="M13.6344 12.2471L9.41857 16.4616L9.44643 1.71422C9.44643 0.924645 8.80743 0.285645 8.01786 0.285645C7.231 0.285645 6.58929 0.924645 6.58929 1.71422L6.56143 16.3612L2.44871 12.2471C1.89057 11.6905 0.986571 11.6905 0.428571 12.2471C-0.129429 12.8052 -0.129429 13.7106 0.428571 14.2686L6.30743 20.1475C6.69814 20.6651 7.32029 20.9999 8.01786 20.9999C8.562 20.9999 9.05586 20.7991 9.43243 20.4671C9.48829 20.4252 9.54129 20.3791 9.59157 20.3289L15.6546 14.2686C16.2126 13.7106 16.2126 12.8052 15.6546 12.2471C15.0966 11.6905 14.1926 11.6905 13.6344 12.2471Z" fill="black"/>
</svg>
